<?xml version="1.0" standalone="no"?>
<!DOCTYPE svg PUBLIC "-//W3C//DTD SVG 20010904//EN"
 "http://www.w3.org/TR/2001/REC-SVG-20010904/DTD/svg10.dtd">
<svg version="1.0" xmlns="http://www.w3.org/2000/svg"
 width="512.000000pt" height="512.000000pt" viewBox="0 0 512.000000 512.000000"
 preserveAspectRatio="xMidYMid meet">

<g transform="translate(0.000000,512.000000) scale(0.100000,-0.100000)"
fill="#000000" stroke="none">
<path d="M872 5109 c-366 -48 -585 -318 -632 -778 -14 -142 -14 -3400 0 -3542
28 -275 116 -481 261 -613 120 -108 264 -162 463 -172 103 -5 114 -4 156 18
33 17 51 35 68 68 l22 44 0 2338 0 2338 1343 0 c928 0 1362 -3 1402 -11 109
-20 187 -79 234 -179 l26 -55 5 -417 c5 -401 6 -418 26 -444 74 -99 212 -96
264 7 20 39 21 52 18 472 -3 414 -4 435 -25 497 -66 194 -214 342 -407 408
l-81 27 -1540 1 c-847 1 -1568 -2 -1603 -7z m28 -2550 l0 -2241 -32 7 c-155
31 -259 164 -305 390 -17 85 -18 185 -18 1845 0 1660 1 1760 18 1845 43 213
132 337 270 381 23 7 48 13 55 13 9 1 12 -453 12 -2240z"/>
<path d="M1835 4046 c-91 -39 -122 -156 -64 -238 43 -60 9 -58 946 -58 839 0
859 1 891 20 46 29 72 76 72 134 0 63 -28 108 -84 135 -42 21 -53 21 -887 21
-679 -1 -850 -3 -874 -14z"/>
<path d="M2877 3266 c-86 -31 -137 -103 -137 -193 0 -37 20 -83 120 -279 l119
-234 -119 -234 c-100 -196 -120 -242 -120 -279 0 -78 40 -145 111 -184 32 -17
76 -18 884 -18 l850 0 57 23 c102 41 179 118 220 220 23 56 23 63 23 472 0
409 0 416 -23 472 -41 102 -118 179 -220 220 l-57 23 -835 2 c-683 2 -842 0
-873 -11z m1651 -307 c20 -7 34 -21 41 -41 15 -42 15 -674 0 -716 -7 -20 -21
-34 -41 -41 -43 -15 -1398 -15 -1398 0 0 5 38 84 85 174 79 153 85 168 85 225
0 57 -6 72 -85 225 -47 90 -85 169 -85 174 0 15 1355 15 1398 0z"/>
<path d="M1861 2710 c-78 -19 -125 -84 -118 -163 5 -55 29 -93 78 -122 32 -19
52 -20 314 -20 311 0 320 2 367 67 32 46 32 130 0 176 -46 64 -59 67 -347 69
-143 1 -275 -2 -294 -7z"/>
<path d="M4320 1442 c-31 -14 -57 -37 -76 -67 -18 -27 -19 -56 -24 -425 l-5
-395 -26 -55 c-29 -62 -86 -123 -139 -150 -75 -38 -123 -40 -1249 -40 -1048 0
-1098 -1 -1131 -19 -101 -53 -104 -192 -6 -265 27 -21 31 -21 1189 -21 l1162
0 81 27 c193 66 341 214 407 408 21 62 22 83 25 477 3 457 3 460 -61 505 -31
22 -118 34 -147 20z"/>
<path d="M1824 1356 c-51 -22 -79 -72 -79 -138 0 -61 17 -94 69 -132 27 -21
37 -21 883 -24 850 -2 856 -2 899 19 56 27 84 72 84 135 0 58 -26 105 -72 134
-32 19 -52 20 -893 20 -700 -1 -866 -3 -891 -14z"/>
</g>
</svg>
